PathFileType	4	(X/Y/Z)	C:/Users/labor/Downloads/static_updated_hjc.trc	
DataRate	CameraRate	NumFrames	NumMarkers	Units	OrigDataRate	OrigDataStartFrame	OrigNumFrames	
200.00	200.00	4	69	mm	200.00	318	175	
Frame#	Time	FHD			LBHD			RBHD			RBAR			LBAR			RASI			RSACR			LSACR			LASI			USACR			C7			CLAV			T10			RSHO			LSHO			LTHI1			LTHI3			LTHI2			LTHI4			LLFC			LMFC			LTIB1			LTIB2			LTIB3			LTIB4			LMMAL			LLMAL			LHEE			LMT1			LMT5			LMT3			RTHI1			RTHI2			RTHI3			RTHI4			RLFC			RMFC			RTIB1			RTIB3			RTIB2			RTIB4			RLMAL			RMMAL			RHEE			RMT5			RMT1			RMT3			LMEP			LLEP			LDUPA			LMUPA			LUUPA			LUL			LRAD			LRFIN			RUL			RRAD			RUFIN			RMEP			RLEP			RMUPA			RDUPA			RUUPA			LAJC			RAJC			LKJC			RKJC			RHJC			LHJC			
		X1	Y1	Z1	X2	Y2	Z2	X3	Y3	Z3	X4	Y4	Z4	X5	Y5	Z5	X6	Y6	Z6	X7	Y7	Z7	X8	Y8	Z8	X9	Y9	Z9	X10	Y10	Z10	X11	Y11	Z11	X12	Y12	Z12	X13	Y13	Z13	X14	Y14	Z14	X15	Y15	Z15	X16	Y16	Z16	X17	Y17	Z17	X18	Y18	Z18	X19	Y19	Z19	X20	Y20	Z20	X21	Y21	Z21	X22	Y22	Z22	X23	Y23	Z23	X24	Y24	Z24	X25	Y25	Z25	X26	Y26	Z26	X27	Y27	Z27	X28	Y28	Z28	X29	Y29	Z29	X30	Y30	Z30	X31	Y31	Z31	X32	Y32	Z32	X33	Y33	Z33	X34	Y34	Z34	X35	Y35	Z35	X36	Y36	Z36	X37	Y37	Z37	X38	Y38	Z38	X39	Y39	Z39	X40	Y40	Z40	X41	Y41	Z41	X42	Y42	Z42	X43	Y43	Z43	X44	Y44	Z44	X45	Y45	Z45	X46	Y46	Z46	X47	Y47	Z47	X48	Y48	Z48	X49	Y49	Z49	X50	Y50	Z50	X51	Y51	Z51	X52	Y52	Z52	X53	Y53	Z53	X54	Y54	Z54	X55	Y55	Z55	X56	Y56	Z56	X57	Y57	Z57	X58	Y58	Z58	X59	Y59	Z59	X60	Y60	Z60	X61	Y61	Z61	X62	Y62	Z62	X63	Y63	Z63	X64	Y64	Z64	X65	Y65	Z65	X66	Y66	Z66	X67	Y67	Z67	X68	Y68	Z68	X69	Y69	Z69	

154	0.765	116.30231	929.88361	1728.69531	285.85333	852.03961	1696.29248	241.48442	1004.98077	1725.34607	2013.74829	2007.88391	28.06769	1903.44092	-212.53574	23.65635	156.19258	1063.43140	969.89423	345.62003	959.42358	977.23474	343.20590	917.14807	973.09753	151.09801	814.16376	973.70313	336.18942	934.24823	985.76605	319.16959	923.93408	1480.61731	162.95491	924.90149	1432.07422	330.99628	935.12097	1169.11487	299.25784	1085.48425	1467.67664	285.29849	763.70764	1460.49487	220.26184	733.54816	813.30823	187.65404	733.57489	790.55664	234.99316	725.03003	774.39911	189.81279	725.28687	726.17615	260.17761	743.87335	499.32263	235.38095	848.15454	469.48486	319.14017	731.59991	416.58707	295.38705	715.21710	378.17224	342.33426	728.49670	366.72278	308.61185	710.22528	313.94244	251.71666	822.29688	96.72297	282.03690	736.79553	76.75313	331.19720	786.26654	35.50775	111.25208	775.09680	41.01060	155.15733	703.83905	29.49145	128.78917	724.60779	33.59904	207.22433	1144.34143	817.29346	207.92793	1149.80664	784.74609	160.72807	1131.28748	781.54382	187.16737	1146.93896	721.67554	255.22369	1125.13208	500.65833	241.80066	1003.66663	482.98456	306.01764	1137.37854	433.00732	339.24274	1143.06458	382.93469	289.06561	1154.89661	385.53555	311.90973	1155.95764	323.79520	287.94330	1132.31311	82.84110	248.75899	1049.81445	100.36021	328.39746	1073.75452	33.22793	172.46509	1181.89722	28.90606	119.22984	1119.18213	45.82372	130.73824	1159.89929	35.03795	214.11264	502.72931	1294.87805	273.06100	489.49255	1392.99902	305.20654	564.15094	1386.39294	323.51489	623.19775	1379.28076	297.72098	635.38513	1420.35510	227.09991	232.71359	1362.14185	168.27043	247.58414	1340.34155	158.02028	153.27579	1350.16858	248.85841	1607.77856	1399.24426	198.74054	1592.66980	1404.81372	183.62151	1697.83740	1405.44849	232.32463	1358.27393	1301.64856	284.93796	1363.15344	1403.32605	321.45081	1266.63770	1400.99146	286.63870	1283.98376	1432.86682	315.18314	1209.60657	1425.92493	266.87678	779.54620	86.73805	268.35114	1091.06378	91.60065	247.77928	796.01395	484.40375	248.51218	1064.39935	491.82144	246.19100	998.83981	977.83014	243.64371	874.20599	979.73459 
155	0.770	116.27400	929.81567	1728.66504	285.83704	851.97980	1696.28613	241.44885	1004.86725	1725.35657	2013.79468	2007.83643	28.01891	1903.33142	-212.71062	23.76871	156.19511	1063.45569	969.90295	345.63971	959.45850	977.23602	343.21701	917.17621	973.09747	151.09033	814.19476	973.69946	336.19962	934.27820	985.77618	319.19586	923.91785	1480.61060	162.97563	924.89423	1432.07153	331.00134	935.12952	1169.10059	299.29886	1085.46655	1467.67896	285.31934	763.68933	1460.46716	220.26454	733.55872	813.30688	187.65512	733.59955	790.55029	234.98915	725.06836	774.39948	189.80754	725.23047	726.16772	260.17435	743.88715	499.32465	235.37408	848.17755	469.47968	319.13333	731.61084	416.58228	295.39069	715.23224	378.16681	342.33075	728.49945	366.74002	308.63977	710.24054	313.92419	251.72313	822.55762	96.79727	282.04065	736.80090	76.75513	331.19397	786.27112	35.50800	111.25113	775.09998	41.00671	155.15735	703.84857	29.49249	128.78983	724.60938	33.60120	207.22517	1144.36890	817.29395	208.02011	1149.53369	784.51746	160.76445	1131.33142	781.57141	187.16270	1146.95654	721.66302	255.21793	1125.14648	500.65814	241.80420	1003.68054	482.98380	306.01743	1137.39319	433.00375	339.24133	1143.08398	382.93130	289.02698	1155.20178	385.58060	311.90747	1155.97522	323.77777	287.94159	1132.31335	82.83788	248.76726	1049.81885	100.34538	328.39484	1073.75061	33.22965	172.48689	1181.88953	28.90060	119.23155	1119.16980	45.82178	130.73352	1159.88220	35.03039	214.08800	502.72379	1294.86157	273.09744	489.49518	1392.90503	305.26053	564.15192	1386.33887	323.52695	623.20905	1379.23645	297.75000	635.38660	1420.30469	227.13933	232.70757	1362.04907	168.28229	247.58000	1340.33313	158.07379	153.36534	1350.17957	248.96304	1607.82971	1399.20325	198.85973	1592.67065	1404.97876	183.76865	1697.84521	1405.62817	232.25914	1358.27759	1301.73499	285.07895	1363.16089	1403.44897	321.48969	1266.62134	1400.96484	286.70178	1283.99280	1432.85730	315.22641	1209.60840	1425.91357	266.88189	779.67926	86.77620	268.35442	1091.06610	91.59163	247.77422	796.03235	484.40216	248.51106	1064.41351	491.82097	246.19736	998.86694	977.83957	243.64497	874.23648	979.73782 
156	0.775	116.23988	929.75439	1728.61523	285.82593	851.91779	1696.28772	241.41672	1004.81561	1725.37952	2013.78198	2007.86914	28.04598	1903.40063	-212.65654	23.74971	156.20787	1063.47656	969.91370	345.61044	959.50085	977.24146	343.21106	917.20850	973.09412	151.08150	814.21014	973.69446	336.19336	934.29395	985.77155	319.15561	923.91138	1480.59070	163.00266	924.89331	1432.06860	330.99960	935.14136	1169.09497	299.34149	1085.44861	1467.68701	285.33243	763.67108	1460.44080	220.27295	733.58557	813.30768	187.66602	733.61737	790.53772	235.00624	725.09351	774.39386	189.80840	725.24390	726.16833	260.17081	743.90515	499.33408	235.12105	848.44421	469.52515	319.12985	731.64331	416.58456	295.38037	715.25690	378.17627	342.32813	728.52460	366.73273	308.64499	710.30530	313.91248	251.45770	822.72211	96.80701	282.04361	736.81274	76.75658	331.18274	786.26196	35.50439	111.25161	775.09619	41.00756	155.16203	703.83960	29.49078	128.78763	724.60168	33.60355	207.22401	1144.39868	817.29486	207.91972	1149.84314	784.74817	160.73322	1131.32324	781.54102	187.16763	1146.98499	721.66962	255.22058	1125.16406	500.65433	241.80557	1003.69183	482.98935	306.02209	1137.40845	433.00522	339.25421	1143.09521	382.92505	289.01865	1155.20337	385.57132	311.90598	1155.98853	323.77744	287.93365	1132.32117	82.83334	248.76306	1049.81042	100.35008	328.39539	1073.74866	33.22513	172.47832	1181.90955	28.89873	119.22652	1119.18115	45.82344	130.74358	1159.88818	35.02846	214.03003	502.67899	1294.86096	273.13531	489.48514	1392.84985	305.28110	564.15656	1386.28223	323.54117	623.21149	1379.18872	297.77451	635.37927	1420.26746	227.18466	232.69495	1361.96240	168.28905	247.56860	1340.31604	158.04047	153.63017	1350.26465	249.08206	1607.67590	1399.33704	198.96822	1592.67615	1405.13342	183.90309	1697.85400	1405.97217	232.18314	1358.28003	1301.82483	284.98593	1362.95789	1403.50562	321.52942	1266.61340	1400.93396	286.77350	1283.99243	1432.84570	315.27231	1209.58997	1425.88159	266.75066	779.76743	86.78180	268.34836	1091.06580	91.59171	247.64593	796.17468	484.42961	248.51308	1064.42795	491.82184	246.20061	998.88525	977.84262	243.63743	874.25204	979.73300 
157	0.780	116.22137	929.69000	1728.56946	285.80045	851.86517	1696.29163	241.39580	1004.75647	1725.40186	2013.75928	2007.88696	28.05481	1903.35962	-212.71634	23.80599	156.20578	1063.50696	969.93030	345.62839	959.52393	977.24182	343.21814	917.22748	973.09906	151.07617	814.22949	973.69873	336.19626	934.31610	985.77783	319.20004	923.87823	1480.58997	163.02634	924.88623	1432.06775	331.02969	935.14624	1169.08582	299.39008	1085.42798	1467.68140	285.35147	763.65094	1460.41675	220.27826	733.61200	813.30811	187.66360	733.64502	790.55011	235.00861	725.12506	774.40125	189.83487	725.32422	726.17810	260.15350	743.92535	499.32950	235.35284	848.21649	469.48367	319.12567	731.66229	416.58441	295.37506	715.27130	378.17206	342.50793	728.30396	366.82370	308.58389	710.25177	313.97806	251.68344	822.66748	96.84735	282.03976	736.81146	76.76762	331.19040	786.26733	35.50688	111.25316	775.10687	41.00530	155.16214	703.84174	29.49585	128.78258	724.60352	33.61093	207.21997	1144.41724	817.29663	207.92754	1149.86938	784.74390	160.73663	1131.33862	781.54272	187.15361	1147.00671	721.66516	255.22232	1125.17493	500.65503	241.81401	1003.70911	482.99341	306.01929	1137.42419	432.99918	339.24106	1143.10217	382.91833	289.06714	1154.92847	385.52353	311.91928	1155.98840	323.76212	287.93576	1132.32434	82.83308	248.76021	1049.82397	100.35193	328.39725	1073.75708	33.22366	172.47021	1181.90479	28.89382	119.22587	1119.16528	45.81772	130.73862	1159.88379	35.02163	213.84004	503.07019	1294.90088	273.15674	489.46582	1392.78760	305.29913	564.15027	1386.22754	323.53204	623.20715	1379.15039	297.78436	635.36322	1420.23303	227.21991	232.68486	1361.87305	168.31201	247.55202	1340.29688	158.15703	153.37714	1350.18994	249.15532	1607.81677	1399.32019	199.06911	1592.67529	1405.28040	184.02875	1697.86438	1405.99255	232.14474	1358.27576	1301.91138	285.01462	1362.95581	1403.40222	321.57629	1266.60388	1400.88965	286.85547	1283.99512	1432.82739	315.32715	1209.57727	1425.84778	266.86160	779.73947	86.80748	268.34798	1091.07416	91.59251	247.75317	796.07092	484.40659	248.51817	1064.44202	491.82422	246.20102	998.91153	977.85406	243.63622	874.27280	979.73828 
